<svg width="116" height="24" viewBox="0 0 116 24" fill="none" xmlns="http://www.w3.org/2000/svg">
<g id="Vector">
<path d="M0 12V23.4037C0 23.733 0.266961 24 0.596274 24C2.79169 24 4.57143 22.2203 4.57143 20.0248V12C4.57143 7.89474 7.89473 4.57143 12 4.57143C16.1053 4.57143 19.4286 7.89474 19.4286 12C19.4286 16.1053 16.1053 19.4286 12 19.4286C10.4221 19.4286 9.14287 20.7078 9.14287 22.2857V23.3469C9.14287 23.7076 9.43525 24 9.79593 24H12C18.6316 24 24 18.6316 24 12C24 5.36843 18.6316 0 12 0C5.36842 0 0 5.36843 0 12Z" fill="url(#paint0_linear_104_7755)"/>
<path d="M14.9524 12C14.9524 13.6306 13.6306 14.9524 12 14.9524C10.3694 14.9524 9.04763 13.6306 9.04763 12C9.04763 10.3694 10.3694 9.04762 12 9.04762C13.6306 9.04762 14.9524 10.3694 14.9524 12Z" fill="url(#paint1_linear_104_7755)"/>
<path d="M31.0868 18V5.925H37.1415C37.935 5.925 38.6308 6.086 39.2288 6.408C39.8383 6.73 40.3155 7.1785 40.6605 7.7535C41.0055 8.317 41.178 8.9725 41.178 9.72C41.178 10.433 41.0055 11.0712 40.6605 11.6347C40.3155 12.1982 39.8383 12.641 39.2288 12.963C38.6193 13.285 37.9235 13.446 37.1415 13.446H33.588V18H31.0868ZM33.588 11.376H36.8655C37.406 11.376 37.8373 11.2265 38.1593 10.9275C38.4928 10.6285 38.6595 10.2317 38.6595 9.73725C38.6595 9.23125 38.4928 8.82875 38.1593 8.52975C37.8373 8.23075 37.406 8.08125 36.8655 8.08125H33.588V11.376Z" fill="#141115"/>
<path d="M45.1995 18.1553C44.5555 18.1553 43.9863 18.0402 43.4918 17.8102C42.9973 17.5687 42.612 17.241 42.336 16.827C42.06 16.413 41.922 15.9358 41.922 15.3953C41.922 14.5328 42.244 13.8657 42.888 13.3942C43.5435 12.9112 44.4405 12.6698 45.579 12.6698C46.361 12.6698 47.097 12.7905 47.787 13.032V12.3765C47.787 11.859 47.626 11.468 47.304 11.2035C46.982 10.939 46.5105 10.8067 45.8895 10.8067C45.51 10.8067 45.1018 10.87 44.6648 10.9965C44.2278 11.1115 43.7218 11.2955 43.1468 11.5485L42.2843 9.80625C42.9973 9.48425 43.6758 9.24275 44.3198 9.08175C44.9753 8.92075 45.6308 8.84025 46.2863 8.84025C47.4938 8.84025 48.431 9.1335 49.098 9.72C49.7765 10.295 50.1158 11.1115 50.1158 12.1695V18H47.787V17.3617C47.419 17.6377 47.0223 17.839 46.5968 17.9655C46.1713 18.092 45.7055 18.1553 45.1995 18.1553ZM44.1645 15.3435C44.1645 15.6885 44.314 15.9645 44.613 16.1715C44.912 16.367 45.3088 16.4647 45.8033 16.4647C46.1943 16.4647 46.5565 16.4188 46.89 16.3267C47.2235 16.2232 47.5225 16.0737 47.787 15.8783V14.5673C47.4995 14.4523 47.2005 14.366 46.89 14.3085C46.5795 14.251 46.246 14.2222 45.8895 14.2222C45.349 14.2222 44.9235 14.3258 44.613 14.5328C44.314 14.7283 44.1645 14.9985 44.1645 15.3435Z" fill="#141115"/>
<path d="M51.9044 21.519V9.01275H54.2332V9.7545C54.9692 9.1795 55.8201 8.892 56.7861 8.892C57.6371 8.892 58.4076 9.099 59.0976 9.513C59.7876 9.927 60.3339 10.4847 60.7364 11.1862C61.1504 11.8762 61.3574 12.6525 61.3574 13.515C61.3574 14.3775 61.1504 15.1595 60.7364 15.861C60.3224 16.551 59.7647 17.103 59.0632 17.517C58.3617 17.9195 57.5796 18.1208 56.7171 18.1208C56.2686 18.1208 55.8374 18.0632 55.4234 17.9482C55.0094 17.8218 54.6241 17.6435 54.2676 17.4135V21.519H51.9044ZM56.4067 16.1198C56.9012 16.1198 57.3439 16.0047 57.7349 15.7747C58.1374 15.5448 58.4536 15.2343 58.6836 14.8433C58.9136 14.4523 59.0286 14.0095 59.0286 13.515C59.0286 13.0205 58.9136 12.5778 58.6836 12.1868C58.4536 11.7843 58.1374 11.4737 57.7349 11.2552C57.3439 11.0252 56.9012 10.9102 56.4067 10.9102C55.9697 10.9102 55.5672 10.985 55.1992 11.1345C54.8427 11.2725 54.5321 11.4853 54.2676 11.7727V15.2745C54.5206 15.539 54.8312 15.746 55.1992 15.8955C55.5787 16.045 55.9812 16.1198 56.4067 16.1198Z" fill="#141115"/>
<path d="M67.1855 18.1725C66.2885 18.1725 65.472 17.9655 64.736 17.5515C64.0115 17.1375 63.4365 16.5798 63.011 15.8783C62.5855 15.1768 62.3727 14.389 62.3727 13.515C62.3727 12.641 62.574 11.8532 62.9765 11.1517C63.3905 10.4502 63.9482 9.8925 64.6497 9.4785C65.3512 9.0645 66.1332 8.8575 66.9957 8.8575C67.8582 8.8575 68.623 9.07025 69.29 9.49575C69.957 9.92125 70.4802 10.4962 70.8597 11.2207C71.2507 11.9452 71.4462 12.7675 71.4462 13.6875V14.3085H64.7877C64.8912 14.665 65.058 14.987 65.288 15.2745C65.5295 15.562 65.8227 15.7863 66.1677 15.9473C66.5242 16.1082 66.9037 16.1887 67.3062 16.1887C67.7087 16.1887 68.0767 16.1255 68.4102 15.999C68.7552 15.8725 69.0485 15.6942 69.29 15.4642L70.8425 16.8787C70.2905 17.3272 69.7212 17.655 69.1347 17.862C68.5597 18.069 67.91 18.1725 67.1855 18.1725ZM64.7532 12.618H69.1175C69.037 12.2615 68.8875 11.951 68.669 11.6865C68.462 11.4105 68.209 11.1977 67.91 11.0482C67.6225 10.8872 67.3005 10.8067 66.944 10.8067C66.576 10.8067 66.2425 10.8815 65.9435 11.031C65.6445 11.1805 65.3915 11.3933 65.1845 11.6693C64.989 11.9338 64.8452 12.25 64.7532 12.618Z" fill="#141115"/>
<path d="M72.8941 18V9.01275H75.2574V10.0132C75.5449 9.62225 75.8899 9.32325 76.2924 9.11625C76.6949 8.90925 77.1492 8.80575 77.6552 8.80575C78.0921 8.81725 78.4199 8.88625 78.6384 9.01275V11.0827C78.4659 11.0022 78.2761 10.9447 78.0691 10.9102C77.8621 10.8642 77.6494 10.8412 77.4309 10.8412C76.9709 10.8412 76.5511 10.9562 76.1716 11.1862C75.7921 11.4162 75.4874 11.744 75.2574 12.1695V18H72.8941Z" fill="#141115"/>
<path d="M79.9356 18V9.01275H82.2989V9.70275C82.9429 9.12775 83.7249 8.84025 84.6449 8.84025C85.2314 8.84025 85.7546 8.961 86.2146 9.2025C86.6746 9.4325 87.0541 9.76025 87.3531 10.1857C87.7212 9.74875 88.1524 9.41525 88.6469 9.18525C89.1529 8.95525 89.7106 8.84025 90.3201 8.84025C90.9986 8.84025 91.5909 8.9955 92.0969 9.306C92.6144 9.605 93.0169 10.0248 93.3044 10.5653C93.6034 11.0943 93.7529 11.7152 93.7529 12.4282V18H91.4069V12.7733C91.4069 12.1868 91.2516 11.7267 90.9411 11.3932C90.6306 11.0482 90.2167 10.8757 89.6992 10.8757C89.3427 10.8757 89.0149 10.9505 88.7159 11.1C88.4284 11.2495 88.1812 11.4738 87.9742 11.7727C87.9856 11.8763 87.9972 11.9797 88.0087 12.0833C88.0201 12.1868 88.0259 12.3017 88.0259 12.4282V18H85.6627V12.7733C85.6627 12.1868 85.5074 11.7267 85.1969 11.3932C84.8979 11.0482 84.4897 10.8757 83.9722 10.8757C83.6157 10.8757 83.2936 10.9447 83.0061 11.0827C82.7301 11.2207 82.4944 11.4277 82.2989 11.7037V18H79.9356Z" fill="#141115"/>
<path d="M95.5516 18V9.01275H97.9149V18H95.5516ZM96.7246 7.94325C96.3566 7.94325 96.0404 7.811 95.7759 7.5465C95.5114 7.282 95.3791 6.96575 95.3791 6.59775C95.3791 6.21825 95.5114 5.902 95.7759 5.649C96.0404 5.3845 96.3566 5.25225 96.7246 5.25225C97.1041 5.25225 97.4204 5.3845 97.6734 5.649C97.9379 5.902 98.0701 6.21825 98.0701 6.59775C98.0701 6.96575 97.9379 7.282 97.6734 7.5465C97.4204 7.811 97.1041 7.94325 96.7246 7.94325Z" fill="#141115"/>
<path d="M99.763 18V9.01275H102.126V9.7545C102.805 9.145 103.644 8.84025 104.645 8.84025C105.346 8.84025 105.962 8.9955 106.491 9.306C107.031 9.605 107.451 10.0248 107.75 10.5653C108.049 11.0943 108.198 11.7152 108.198 12.4282V18H105.835V12.7733C105.835 12.1868 105.668 11.7267 105.335 11.3932C105.001 11.0482 104.547 10.8757 103.972 10.8757C103.57 10.8757 103.213 10.9563 102.903 11.1173C102.592 11.2668 102.333 11.4853 102.126 11.7727V18H99.763Z" fill="#141115"/>
<path d="M113.996 18.138C112.996 18.138 112.237 17.9137 111.719 17.4653C111.213 17.0053 110.96 16.3382 110.96 15.4642V10.9792H109.115V9.01275H110.96V6.7185L113.324 6.18375V9.01275H115.894V10.9792H113.324V14.9813C113.324 15.3953 113.416 15.6943 113.6 15.8783C113.784 16.0508 114.106 16.137 114.566 16.137C114.796 16.137 115.003 16.1255 115.187 16.1025C115.382 16.068 115.595 16.0105 115.825 15.93V17.8792C115.583 17.9597 115.279 18.023 114.911 18.069C114.554 18.115 114.249 18.138 113.996 18.138Z" fill="#141115"/>
</g>
<defs>
<linearGradient id="paint0_linear_104_7755" x1="115.894" y1="0" x2="106.363" y2="46.0262" gradientUnits="userSpaceOnUse">
<stop stop-color="#84D930"/>
<stop offset="1" stop-color="#7EF29D"/>
</linearGradient>
<linearGradient id="paint1_linear_104_7755" x1="115.894" y1="0" x2="106.363" y2="46.0262" gradientUnits="userSpaceOnUse">
<stop stop-color="#84D930"/>
<stop offset="1" stop-color="#7EF29D"/>
</linearGradient>
</defs>
</svg>
